<svg xmlns="http://www.w3.org/2000/svg" fill-rule="evenodd" xml:space="preserve" height="500" width="750" viewBox="0 0 8.3333334 5.5555556">
 <polygon fill-rule="nonzero" transform="matrix(2.977672,0,0,2.7785574,0.00615462,-0.01403499)" points="2.79654,2.00449,2.79654,0.00505118,-0.00206693,0.00505118,-0.00206693,2.00449" fill="#e41e20"/><path fill-rule="evenodd" fill="#000000" d="m3.6121534,1.0800482c-0.05402-0.0009106-0.1436758,0.017222-0.1416667,0.05868-0.1504655-0.025788-0.1661331,0.036363-0.1572916,0.091667,0.014316-0.021948,0.031747-0.033864,0.045139-0.036111,0.020064-0.00333,0.04106,0.00315,0.0625,0.016319,0.021441,0.01317,0.045062,0.034422,0.055556,0.047569-0.053105,0.012696-0.09413,0.0045-0.1357639-0.00278-0.020524-0.00359-0.049245-0.015136-0.066319-0.027083-0.017074-0.011949-0.02245-0.023195-0.049306-0.050694-0.031663-0.032422-0.065362-0.023293-0.054861,0.027083,0.024284,0.046788,0.064851,0.067651,0.1159722,0.076042,0.0246,0.00404,0.061244,0.012807,0.1027778,0.012847,0.041534,0.0000444,0.088169-0.006,0.1135417-0.0006944-0.015243,0.00957-0.032492,0.026069-0.066667,0.032639-0.034753,0.00668-0.087589-0.020666-0.1197916-0.028125,0.00409,0.027095,0.038267,0.052424,0.1055555,0.065625,0.1105724,0.024077,0.2024531,0.042375,0.2631944,0.075347,0.060741,0.032972,0.099038,0.074252,0.1263889,0.1065972,0.054429,0.064368,0.057292,0.1137803,0.060764,0.1246527,0.011198,0.1028411-0.024662,0.1606908-0.091319,0.1784722-0.033329,0.00889-0.092532-0.00785-0.1142361-0.033333-0.021705-0.025477-0.042823-0.069269-0.036806-0.1378472,0.00585-0.026903,0.036614-0.096979,0.010417-0.1114583-0.1206841-0.0667028-0.2672361-0.1341599-0.3732647-0.1743032-0.0289794-0.0109717-0.0528528,0.028415-0.0621528,0.04375-0.1801234-0.0219353-0.3425224-0.1438257-0.4156249-0.273611-0.049789-0.088395-0.13185,0.0001824-0.1180556,0.08368,0.02227,0.093196,0.093278,0.1605769,0.1784722,0.2083333,0.087439,0.048146,0.1967322,0.095522,0.3072917,0.093056,0.059563,0.011268,0.058975,0.088327-0.0125,0.1027777-0.1397883,0.0008845-0.2513053-0.0026-0.3565972-0.1041666-0.079864-0.07292-0.1248249,0.013966-0.1017361,0.063194,0.039126,0.1517588,0.2556257,0.1942559,0.4746527,0.1451389,0.084816-0.014046,0.034028,0.076838,0.010069,0.077778-0.091518,0.065618-0.2553631,0.1298229-0.3996528-0.0006945-0.066027-0.050558-0.1106684-0.00806-0.086111,0.064931,0.064024,0.1903042,0.3089299,0.1503354,0.4770833,0.056597,0.043281-0.024127,0.082561,0.032005,0.029861,0.074653-0.2091126,0.1461148-0.313665,0.1477764-0.4079856,0.0916665-0.1180829-0.04657-0.1284703,0.0844041-0.0583333,0.1274305,0.077955,0.047822,0.2763347,0.011967,0.421875-0.079514,0.062393-0.046387,0.065216,0.026145,0.025694,0.054861-0.1727134,0.1492594-0.2407886,0.1885666-0.4208333,0.1642361-0.089279-0.00696-0.087938,0.10311-0.017708,0.1461805,0.095887,0.058805,0.2831407-0.038805,0.4284722-0.159375,0.061169-0.032685,0.071215,0.020919,0.040972,0.084375-0.088801,0.1120358-0.172147,0.1780897-0.2524305,0.2086805-0.080284,0.030591-0.1575054,0.025717-0.2121528,0.00694-0.066669-0.022905-0.075029,0.046381-0.038194,0.109375,0.022204,0.037972,0.1142187,0.050148,0.2135416,0.014931,0.099323-0.035212,0.2059538-0.1178068,0.2791666-0.2145833,0.063699-0.055766,0.055777,0.019152,0.026736,0.071875-0.1466045,0.2317634-0.280689,0.3177369-0.4572917,0.303125-0.078306-0.013297-0.09609,0.047596-0.04618,0.1038194,0.087638,0.072679,0.1972146,0.0704,0.2930555-0.00139,0.085202-0.082147,0.2481993-0.2590376,0.3336805-0.3538194,0.060237-0.048021,0.07948-0.00068,0.061806,0.096875-0.016074,0.055867-0.056314,0.1147044-0.1659722,0.1576389-0.074914,0.042756-0.018656,0.1016824,0.0375,0.1027777,0.030904,0.0006027,0.093658-0.035524,0.1416666-0.089583,0.063158-0.071117,0.066914-0.1188624,0.1017361-0.2295138,0.032899-0.053938,0.091661-0.028762,0.091667,0.027778-0.028183,0.1108354-0.052398,0.1307086-0.109375,0.1760417-0.054498,0.051166,0.037947,0.068218,0.069097,0.047222,0.090116-0.060742,0.1230147-0.139314,0.153125-0.2107639,0.021734-0.051574,0.084782-0.026572,0.055556,0.057639-0.069845,0.2012528-0.1846129,0.2804971-0.3854166,0.3211805-0.020351,0.00362-0.032764,0.015629-0.025694,0.039236,0.026951,0.027979,0.053951,0.053367,0.080903,0.08125-0.1241682,0.036153-0.2250451,0.056463-0.3493076,0.092713-0.060965-0.039969-0.1102155-0.073879-0.1711805-0.1138889-0.016076-0.037581-0.023572-0.094945-0.1135417-0.054514-0.060965-0.028157-0.089087-0.017832-0.1229166,0.010417,0.048838,0.00182,0.070087,0.014899,0.089236,0.037153,0.025001,0.065846,0.082653,0.072207,0.1416666,0.053472,0.038392,0.032342,0.058838,0.05715,0.097222,0.089583-0.071658-0.00245-0.1215805-0.00372-0.1930555-0.0059-0.06823-0.07326-0.1226888-0.069247-0.1715278-0.011805-0.037223,0.00572-0.053002,0.00652-0.078472,0.051736,0.040057-0.01644,0.065258-0.021368,0.082639-0.00347,0.072541,0.042055,0.1199308,0.032668,0.1559028,0,0.069986,0.00428,0.133051,0.0079,0.203125,0.0125-0.02574,0.021879-0.061065,0.033485-0.086806,0.055556-0.1051144-0.030072-0.1599762,0.010407-0.1784722,0.096181-0.014087,0.034619-0.020683,0.070261-0.014583,0.1072917,0.010174-0.033871,0.026532-0.062993,0.056597-0.08125,0.093689,0.023798,0.1289178-0.01445,0.1340278-0.070486,0.045161-0.036848,0.1132616-0.044974,0.1583333-0.082292,0.0527,0.016871,0.078175,0.027321,0.13125,0.044097,0.01887,0.057342,0.06157,0.080047,0.1309027,0.065278,0.082533,0.00259,0.067963,0.036455,0.074653,0.063542,0.021934-0.038901,0.021323-0.076732-0.029514-0.1111111-0.018496-0.050249-0.059475-0.073102-0.1131944-0.044097-0.050566-0.014356-0.06386-0.03499-0.1142361-0.049306,0.1274233-0.040614,0.217811-0.049753,0.3451388-0.090278,0.031872,0.030065,0.057132,0.051649,0.089236,0.078472,0.01692,0.010099,0.033117,0.012643,0.043056,0,0.079787-0.1154803,0.1154213-0.2172535,0.1895833-0.2934028,0.028333-0.031506,0.064129-0.074015,0.1038194-0.084375,0.019845-0.00518,0.044182-0.00202,0.059722,0.014931,0.01554,0.016949,0.027747,0.048187,0.02257,0.094792-0.00743,0.066898-0.023593,0.08802-0.042361,0.128125-0.018768,0.040106-0.041704,0.064775-0.065278,0.095486-0.047149,0.061421-0.10936,0.097171-0.1461805,0.1211806-0.073641,0.04802-0.1047859,0.027003-0.1618056,0.023958-0.073697,0.00827-0.093306,0.044163-0.032986,0.09375,0.056388,0.029339,0.1070725,0.032961,0.1482639,0.025347,0.035368-0.00654,0.076759-0.05219,0.10625-0.076736,0.033196-0.03835,0.088233,0.00713,0.050694,0.051736-0.068215,0.081053-0.1363761,0.1344933-0.2204861,0.1333333-0.088385,0.011895-0.071852,0.061556-0.013194,0.085764,0.1055685,0.043569,0.200885-0.038039,0.2493055-0.091667,0.037358-0.040871,0.063892-0.042465,0.057292,0.020833-0.037087,0.1145957-0.087768,0.1588633-0.1704861,0.1645833-0.067095-0.00623-0.06782,0.045562-0.01875,0.080556,0.1117815,0.077369,0.1927326-0.054386,0.2305555-0.1340277,0.026952-0.071841,0.068291-0.037677,0.07257,0.021528,0.0005576,0.0791045-0.035186,0.1436903-0.1309028,0.2246532,0.073235,0.1166828,0.1586148,0.2353658,0.2319444,0.3524305,0.0733285-0.1170708,0.1587082-0.2357538,0.2319432-0.3524366-0.0957167-0.0809629-0.1314604-0.1455488-0.1309027-0.2246527,0.00428-0.059205,0.045617-0.093369,0.072569-0.021528,0.037823,0.079642,0.118774,0.2113967,0.2305555,0.1340277,0.04907-0.034993,0.048345-0.086786-0.01875-0.080556-0.082718-0.00572-0.1333991-0.049988-0.170486-0.1645833-0.0066-0.063298,0.019934-0.061704,0.057292-0.020833,0.048421,0.053628,0.143737,0.1352357,0.2493055,0.091667,0.058658-0.024208,0.075191-0.073869-0.013194-0.085764-0.08411,0.00116-0.1522711-0.05228-0.2204861-0.1333333-0.037539-0.044606,0.017498-0.090086,0.050694-0.051736,0.029491,0.024546,0.070882,0.070196,0.1062499,0.076736,0.041192,0.00761,0.091876,0.00399,0.1482639-0.025347,0.06032-0.049587,0.040711-0.08548-0.032986-0.09375-0.05702,0.00305-0.088165,0.024062-0.1618055-0.023958-0.036821-0.02401-0.099032-0.05976-0.1461806-0.1211806-0.023574-0.030711-0.04651-0.05538-0.065278-0.095486-0.018768-0.040105-0.034931-0.061227-0.042361-0.128125-0.00518-0.046605,0.00703-0.077843,0.02257-0.094792,0.01554-0.016951,0.039877-0.020111,0.059722-0.014931,0.03969,0.01036,0.075486,0.052869,0.1038194,0.084375,0.074162,0.076149,0.1097961,0.1779225,0.1895834,0.2934028,0.00994,0.012643,0.026136,0.010099,0.043056,0,0.032104-0.026823,0.057364-0.048407,0.089236-0.078472,0.1273279,0.040525,0.2177155,0.049664,0.3451389,0.090278-0.050376,0.014316-0.06367,0.03495-0.1142361,0.049306-0.053719-0.029005-0.094698-0.00615-0.1131945,0.044097-0.050837,0.03438-0.051448,0.07221-0.029514,0.1111111,0.00669-0.027087-0.00788-0.060952,0.074653-0.063542,0.069333,0.014769,0.1120328-0.00794,0.1309028-0.065278,0.053075-0.016776,0.07855-0.027226,0.13125-0.044097,0.045072,0.037318,0.1131723,0.045444,0.1583333,0.082292,0.00511,0.056036,0.040339,0.094284,0.1340277,0.070486,0.030065,0.018257,0.046423,0.047379,0.056597,0.08125,0.0061-0.037031-0.0004964-0.072673-0.014583-0.1072917-0.018497-0.085774-0.073359-0.126253-0.1784734-0.096181-0.025741-0.022071-0.061065-0.033677-0.086806-0.055556,0.070074-0.0046,0.133139-0.00822,0.203125-0.0125,0.035972,0.032668,0.083362,0.042055,0.1559027,0,0.017381-0.017896,0.042582-0.012968,0.082639,0.00347-0.0254691-0.0452154-0.0412481-0.0460154-0.0784711-0.0517354-0.048839-0.057442-0.1032978-0.061454-0.1715278,0.011805-0.071475,0.00218-0.1213975,0.00345-0.1930555,0.0059,0.038384-0.032433,0.05883-0.057241,0.097222-0.089583,0.059014,0.018735,0.1166657,0.012374,0.1416667-0.053472,0.019149-0.022254,0.040398-0.035333,0.089236-0.037153-0.03383-0.028249-0.061952-0.038574-0.1229167-0.010417-0.089969-0.040431-0.097466,0.016933-0.1135417,0.054514-0.060965,0.04001-0.1102155,0.07392-0.1711805,0.1138889-0.1242624-0.03625-0.2251394-0.05656-0.3493055-0.092708,0.026952-0.027883,0.053952-0.053271,0.080903-0.08125,0.00707-0.023607-0.00534-0.035616-0.025695-0.039236-0.2008033-0.0406785-0.3155713-0.1199228-0.3854163-0.3211756-0.029226-0.084211,0.033821-0.1092129,0.055555-0.057639,0.03011,0.07145,0.063009,0.1500219,0.153125,0.2107639,0.03115,0.020996,0.1235952,0.00394,0.069097-0.047222-0.056977-0.045333-0.081192-0.065206-0.1093749-0.1760417,0.000006-0.05654,0.058768-0.081716,0.091667-0.027778,0.034822,0.1106514,0.038578,0.1583968,0.1017361,0.2295138,0.048009,0.054059,0.1107627,0.090186,0.1416667,0.089583,0.056156-0.0011,0.112414-0.060022,0.0375-0.1027777-0.109658-0.042934-0.1498979-0.1017714-0.1659719-0.1576384-0.017674-0.097555,0.00157-0.144896,0.061805-0.096875,0.085481,0.094782,0.2484785,0.2716724,0.3336805,0.3538194,0.095841,0.071789,0.2054176,0.074068,0.2930556,0.00139,0.04991-0.056223,0.032125-0.1171164-0.046181-0.1038194-0.1766026,0.014612-0.3106872-0.071362-0.4572916-0.303125-0.029041-0.052723-0.036963-0.127641,0.026736-0.071875,0.073213,0.096777,0.1798436,0.1793713,0.2791666,0.2145833,0.099323,0.035217,0.1913377,0.023041,0.2135417-0.014931,0.036835-0.062994,0.028474-0.13228-0.038195-0.109375-0.054647,0.018772-0.1318687,0.023646-0.2121527-0.00694-0.080282-0.030596-0.1636281-0.09665-0.2524291-0.2086856-0.030243-0.063456-0.020197-0.11706,0.040972-0.084375,0.1453314,0.12057,0.3325852,0.21818,0.4284721,0.159375,0.07023-0.04307,0.071571-0.1531405-0.017708-0.1461805-0.1800446,0.024331-0.2481199-0.014977-0.4208333-0.1642361-0.039522-0.028716-0.036698-0.1012481,0.025695-0.054861,0.1455403,0.091481,0.3439199,0.1273358,0.4218749,0.079514,0.070137-0.043026,0.05975-0.1740005-0.058333-0.1274305-0.094321,0.05611-0.198873,0.054448-0.4079861-0.091667-0.0527-0.042648-0.01342-0.09878,0.029861-0.074653,0.1681535,0.093738,0.4130593,0.133707,0.4770833-0.056597,0.024557-0.072991-0.020084-0.1154886-0.086111-0.064931-0.1442896,0.1305174-0.3081347,0.066312-0.3996527,0.0006945-0.023959-0.00094-0.074747-0.091824,0.010069-0.077778,0.219027,0.049117,0.4355268,0.00662,0.4746527-0.1451389,0.023088-0.049227-0.021872-0.1361137-0.1017365-0.063194-0.1052918,0.1015665-0.2168088,0.1050511-0.3565971,0.1041666-0.071475-0.014451-0.072063-0.09151-0.0125-0.1027777,0.1105594,0.00247,0.2198526-0.04491,0.3072916-0.093056,0.085194-0.047756,0.1562022-0.1151373,0.1784722-0.2083333,0.013794-0.083498-0.068267-0.1720755-0.1180555-0.083681-0.073103,0.1297853-0.2355016,0.251676-0.415625,0.273611-0.0093-0.015335-0.033174-0.054722-0.062153-0.04375-0.1060285,0.040143-0.2525806,0.1076006-0.3732638,0.1743056-0.026197,0.014479,0.00457,0.084555,0.010417,0.1114583,0.00602,0.068578-0.0151,0.1123702-0.036805,0.1378472-0.021705,0.025484-0.080908,0.042225-0.1142368,0.033335-0.066658-0.017781-0.1025174-0.075631-0.091319-0.1784722,0.00347-0.010872,0.00633-0.060285,0.060764-0.1246527,0.027351-0.032345,0.065648-0.073625,0.1263889-0.1065972,0.060741-0.032972,0.152622-0.05127,0.2631944-0.075347,0.067289-0.013201,0.1014656-0.03853,0.1055556-0.065625-0.032203,0.00746-0.085039,0.034805-0.1197917,0.028125-0.034175-0.00657-0.051424-0.023069-0.066667-0.032639,0.025373-0.00531,0.072008,0.0007388,0.1135416,0.0006944,0.041534-0.00004,0.078178-0.00881,0.1027778-0.012847,0.051121-0.00839,0.091688-0.029254,0.1159722-0.076042,0.010501-0.050376-0.023198-0.059505-0.054861-0.027083-0.026856,0.027499-0.032232,0.038745-0.049306,0.050694-0.017074,0.011947-0.045795,0.023493-0.066319,0.027083-0.041634,0.00728-0.082659,0.015474-0.1357639,0.00278,0.010493-0.013147,0.034115-0.034399,0.055556-0.047569,0.02144-0.01317,0.042436-0.019649,0.0625-0.016319,0.013392,0.00225,0.030823,0.014163,0.045139,0.036111,0.00884-0.055304-0.00683-0.1174547-0.1572917-0.091667,0.00201-0.041459-0.087647-0.059591-0.1416666-0.05868-0.030593,0.000515-0.093354,0.018454-0.1385417,0.039583-0.071474,0.021657-0.1425104,0.037503-0.2256944,0.043403,0.048038,0.040348,0.057475,0.042655,0.1059027,0.077083-0.07333,0.026672-0.1301265,0.081963-0.1555555,0.1180555,0.064051,0.00307,0.085201-0.00232,0.1069444,0.00694-0.089221,0.025841-0.1296091,0.040981-0.1767361,0.088194,0.016684,0.00304,0.041487,0.00749,0.052083,0.011458,0.010955,0.00411,0.00642,0.00974-0.00104,0.017708-0.020453,0.0128-0.09873,0.1050209-0.121875,0.1263889-0.023145-0.021368-0.1014214-0.1135885-0.121875-0.1263889-0.00746-0.00797-0.011997-0.013601-0.00104-0.017708,0.010596-0.00397,0.035399-0.00842,0.052083-0.011458-0.04713-0.04721-0.087518-0.062351-0.1767391-0.088192,0.021743-0.00926,0.042893-0.00387,0.1069444-0.00694-0.0254293-0.0360969-0.0822257-0.0913873-0.1555559-0.1180603,0.048428-0.034428,0.057865-0.0367353,0.1059028-0.0770833-0.083184-0.0059-0.1542205-0.0217458-0.2256945-0.0434028-0.045188-0.021129-0.1079488-0.0390683-0.1385416-0.0395833zm0.00799,0.096875c0.043958,0,0.071181,0.015068,0.071181,0.033333,0,0.018582-0.027223,0.033681-0.071181,0.033681-0.043775,0-0.071528-0.016477-0.071528-0.035069,0.0000079-0.018265,0.027753-0.031945,0.071528-0.031945zm1.0930554,0c0.043775,0,0.07152,0.01368,0.071528,0.031945,0,0.018592-0.027753,0.035069-0.071528,0.035069-0.043958,0-0.07118-0.015099-0.07118-0.033681,0-0.018265,0.027222-0.033333,0.07118-0.033333z"/>
</svg>